<mxfile host="Electron" agent="Mozilla/5.0 (X11; Linux x86_64) AppleWebKit/537.36 (KHTML, like Gecko) draw.io/28.2.5 Chrome/138.0.7204.251 Electron/37.6.1 Safari/537.36" version="28.2.5">
  <diagram name="第 1 页" id="A2wYnKDMZFF023bxGnZ8">
    <mxGraphModel dx="599" dy="788" grid="1" gridSize="10" guides="1" tooltips="1" connect="1" arrows="1" fold="1" page="1" pageScale="1" pageWidth="827" pageHeight="1169" math="0" shadow="0">
      <root>
        <mxCell id="0" />
        <mxCell id="1" parent="0" />
        <mxCell id="lc5mf7nCTQjh2SExQ85K-13" value="" style="rounded=0;whiteSpace=wrap;html=1;" parent="1" vertex="1">
          <mxGeometry x="840" y="150" width="1290" height="580" as="geometry" />
        </mxCell>
        <mxCell id="mEVcy1A5f8fxIJjsYzMS-3" value="AppClassLoader（应用类加载器）" style="html=1;whiteSpace=wrap;fontSize=20;fontStyle=0;fontColor=#FF0000;" parent="1" vertex="1">
          <mxGeometry x="1780" y="640" width="320" height="50" as="geometry" />
        </mxCell>
        <mxCell id="mEVcy1A5f8fxIJjsYzMS-37" value="&lt;div&gt;java&lt;/div&gt;" style="shape=module;align=left;spacingLeft=20;align=center;verticalAlign=top;whiteSpace=wrap;html=1;fontSize=20;" parent="1" vertex="1">
          <mxGeometry x="1850" y="220" width="160" height="50" as="geometry" />
        </mxCell>
        <mxCell id="sfTFQ8--7tGj1e8rCVsK-3" value="BuiltinClassLoader" style="html=1;whiteSpace=wrap;fontSize=20;fontStyle=0;" parent="1" vertex="1">
          <mxGeometry x="1330" y="490" width="310" height="50" as="geometry" />
        </mxCell>
        <mxCell id="sfTFQ8--7tGj1e8rCVsK-4" value="Extends" style="endArrow=block;endSize=16;endFill=0;html=1;rounded=0;exitX=0.5;exitY=0;exitDx=0;exitDy=0;entryX=0.5;entryY=1;entryDx=0;entryDy=0;" parent="1" source="mEVcy1A5f8fxIJjsYzMS-3" target="sfTFQ8--7tGj1e8rCVsK-3" edge="1">
          <mxGeometry width="160" relative="1" as="geometry">
            <mxPoint x="1410" y="580" as="sourcePoint" />
            <mxPoint x="1570" y="580" as="targetPoint" />
          </mxGeometry>
        </mxCell>
        <mxCell id="sfTFQ8--7tGj1e8rCVsK-5" value="SecureClassLoader" style="html=1;whiteSpace=wrap;fontSize=20;fontStyle=0;" parent="1" vertex="1">
          <mxGeometry x="1330" y="360" width="310" height="50" as="geometry" />
        </mxCell>
        <mxCell id="sfTFQ8--7tGj1e8rCVsK-6" value="ClassLoader" style="html=1;whiteSpace=wrap;fontSize=20;fontStyle=2;" parent="1" vertex="1">
          <mxGeometry x="1330" y="220" width="310" height="50" as="geometry" />
        </mxCell>
        <mxCell id="sfTFQ8--7tGj1e8rCVsK-7" value="Extends" style="endArrow=block;endSize=16;endFill=0;html=1;rounded=0;exitX=0.5;exitY=0;exitDx=0;exitDy=0;entryX=0.5;entryY=1;entryDx=0;entryDy=0;" parent="1" source="sfTFQ8--7tGj1e8rCVsK-3" target="sfTFQ8--7tGj1e8rCVsK-5" edge="1">
          <mxGeometry width="160" relative="1" as="geometry">
            <mxPoint x="1500" y="450" as="sourcePoint" />
            <mxPoint x="1660" y="450" as="targetPoint" />
          </mxGeometry>
        </mxCell>
        <mxCell id="sfTFQ8--7tGj1e8rCVsK-8" value="Extends" style="endArrow=block;endSize=16;endFill=0;html=1;rounded=0;exitX=0.5;exitY=0;exitDx=0;exitDy=0;entryX=0.5;entryY=1;entryDx=0;entryDy=0;" parent="1" source="sfTFQ8--7tGj1e8rCVsK-5" target="sfTFQ8--7tGj1e8rCVsK-6" edge="1">
          <mxGeometry width="160" relative="1" as="geometry">
            <mxPoint x="1510" y="320" as="sourcePoint" />
            <mxPoint x="1670" y="320" as="targetPoint" />
          </mxGeometry>
        </mxCell>
        <mxCell id="sfTFQ8--7tGj1e8rCVsK-9" value="PlatformClassLoader（平台类加载器）" style="html=1;whiteSpace=wrap;fontSize=20;fontStyle=0;fontColor=#FF0000;" parent="1" vertex="1">
          <mxGeometry x="1305" y="640" width="360" height="50" as="geometry" />
        </mxCell>
        <mxCell id="sfTFQ8--7tGj1e8rCVsK-10" value="Extends" style="endArrow=block;endSize=16;endFill=0;html=1;rounded=0;exitX=0.5;exitY=0;exitDx=0;exitDy=0;entryX=0.5;entryY=1;entryDx=0;entryDy=0;" parent="1" source="sfTFQ8--7tGj1e8rCVsK-9" target="sfTFQ8--7tGj1e8rCVsK-3" edge="1">
          <mxGeometry width="160" relative="1" as="geometry">
            <mxPoint x="1510" y="580" as="sourcePoint" />
            <mxPoint x="1670" y="580" as="targetPoint" />
          </mxGeometry>
        </mxCell>
        <mxCell id="sfTFQ8--7tGj1e8rCVsK-11" value="BootClassLoader（启动类加载器）" style="html=1;whiteSpace=wrap;fontSize=20;fontStyle=0;fontColor=#FF0000;" parent="1" vertex="1">
          <mxGeometry x="870" y="640" width="330" height="50" as="geometry" />
        </mxCell>
        <mxCell id="sfTFQ8--7tGj1e8rCVsK-12" value="Extends" style="endArrow=block;endSize=16;endFill=0;html=1;rounded=0;exitX=0.5;exitY=0;exitDx=0;exitDy=0;entryX=0.5;entryY=1;entryDx=0;entryDy=0;" parent="1" source="sfTFQ8--7tGj1e8rCVsK-11" target="sfTFQ8--7tGj1e8rCVsK-3" edge="1">
          <mxGeometry width="160" relative="1" as="geometry">
            <mxPoint x="1120" y="635" as="sourcePoint" />
            <mxPoint x="1295" y="535" as="targetPoint" />
          </mxGeometry>
        </mxCell>
        <mxCell id="-0wQroy0U2rXBeIrKFGX-1" value="" style="endArrow=classic;html=1;rounded=0;exitX=0;exitY=0.5;exitDx=0;exitDy=0;entryX=1;entryY=0.5;entryDx=0;entryDy=0;" edge="1" parent="1" source="mEVcy1A5f8fxIJjsYzMS-3" target="sfTFQ8--7tGj1e8rCVsK-9">
          <mxGeometry width="50" height="50" relative="1" as="geometry">
            <mxPoint x="1680" y="690" as="sourcePoint" />
            <mxPoint x="1730" y="640" as="targetPoint" />
          </mxGeometry>
        </mxCell>
        <mxCell id="-0wQroy0U2rXBeIrKFGX-2" value="" style="endArrow=classic;html=1;rounded=0;exitX=0;exitY=0.5;exitDx=0;exitDy=0;" edge="1" parent="1" source="sfTFQ8--7tGj1e8rCVsK-9" target="sfTFQ8--7tGj1e8rCVsK-11">
          <mxGeometry width="50" height="50" relative="1" as="geometry">
            <mxPoint x="1250" y="640" as="sourcePoint" />
            <mxPoint x="1300" y="590" as="targetPoint" />
          </mxGeometry>
        </mxCell>
        <mxCell id="-0wQroy0U2rXBeIrKFGX-3" value="parent" style="text;html=1;align=center;verticalAlign=middle;whiteSpace=wrap;rounded=0;fontSize=20;fontColor=#FF0000;" vertex="1" parent="1">
          <mxGeometry x="1221" y="630" width="60" height="30" as="geometry" />
        </mxCell>
        <mxCell id="-0wQroy0U2rXBeIrKFGX-4" value="parent" style="text;html=1;align=center;verticalAlign=middle;whiteSpace=wrap;rounded=0;fontSize=20;fontColor=#FF0000;" vertex="1" parent="1">
          <mxGeometry x="1690" y="630" width="60" height="30" as="geometry" />
        </mxCell>
      </root>
    </mxGraphModel>
  </diagram>
</mxfile>
